<svg xmlns="http://www.w3.org/2000/svg" width="1566" height="1568" viewBox="0 0 1566 1568" version="1.1">
	<path d="M 1399.709 198.624 C 1398.658 199.675, 1398.850 202.789, 1400.009 203.506 C 1402.022 204.750, 1405.128 202.911, 1404.808 200.664 C 1404.503 198.523, 1401.151 197.182, 1399.709 198.624 M 614.500 250.565 C 577.638 253.514, 544.391 259.427, 510 269.149 C 497.371 272.719, 479.375 278.391, 472.500 280.967 C 438.621 293.662, 423.633 300.107, 397.500 313.221 C 358.689 332.697, 317.233 358.901, 283.500 385.281 C 278 389.582, 271.943 394.316, 270.039 395.801 C 256.360 406.470, 229.294 430.776, 213.024 447 C 172.985 486.927, 145.766 520.077, 114.494 567 C 90.577 602.888, 71.730 637.273, 53.965 677.434 C 52.764 680.148, 48.910 689.692, 45.400 698.643 C 27.013 745.524, 15.086 790.256, 9.042 835 C 8.410 839.675, 7.486 846.425, 6.988 850 C 6.490 853.575, 5.788 861.584, 5.429 867.797 C 4.852 877.767, 4.983 879.324, 6.543 881.047 C 8.738 883.473, 13.192 883.577, 15.199 881.250 C 17.098 879.048, 26 863.093, 26 861.892 C 26 861.401, 26.340 861, 26.756 861 C 27.172 861, 28.142 859.538, 28.913 857.750 C 29.684 855.962, 31.092 853.375, 32.042 852 C 32.992 850.625, 35.018 847.250, 36.545 844.500 C 38.071 841.750, 39.811 838.623, 40.410 837.551 C 41.010 836.479, 42.288 834.707, 43.250 833.612 C 44.213 832.518, 45 831.033, 45 830.311 C 45 829.590, 45.450 829, 46 829 C 46.550 829, 47 828.395, 47 827.655 C 47 826.915, 47.900 825.495, 49 824.500 C 50.100 823.505, 51 822.305, 51 821.835 C 51 821.364, 52.575 818.739, 54.500 816 C 56.425 813.261, 58 810.796, 58 810.521 C 58 810.247, 60.025 807.360, 62.500 804.105 C 64.975 800.851, 67 797.908, 67 797.565 C 67 797.223, 69.250 794.043, 72 790.500 C 74.750 786.957, 77 783.825, 77 783.540 C 77 783.256, 77.647 782.230, 78.438 781.261 C 79.230 780.293, 81.480 777.545, 83.438 775.155 C 85.397 772.766, 87.007 770.516, 87.016 770.155 C 87.025 769.795, 88.262 768.038, 89.766 766.251 C 91.270 764.463, 93.850 761.183, 95.500 758.961 C 97.150 756.739, 100.075 752.961, 102 750.566 C 103.925 748.171, 107.525 743.636, 110 740.488 C 112.475 737.340, 116.300 732.631, 118.500 730.024 C 120.700 727.418, 123.175 724.430, 124 723.384 C 127.186 719.346, 135.572 709.428, 137.008 708 C 137.837 707.175, 140.025 704.700, 141.870 702.500 C 170.298 668.598, 255.767 581.961, 286.500 555.893 C 288.700 554.027, 291.625 551.367, 293 549.983 C 294.375 548.599, 298.200 545.224, 301.500 542.483 C 304.800 539.742, 308.625 536.375, 310 535 C 311.375 533.625, 314.750 530.701, 317.500 528.503 C 320.250 526.305, 323.923 523.155, 325.661 521.503 C 327.400 519.851, 331.610 516.250, 335.018 513.500 C 338.426 510.750, 343.593 506.475, 346.500 504 C 349.407 501.525, 354.551 497.250, 357.930 494.500 C 361.309 491.750, 365.294 488.457, 366.787 487.182 C 368.279 485.907, 372.875 482.320, 377 479.210 C 381.125 476.100, 384.725 473.316, 385 473.022 C 385.275 472.729, 387.300 471.165, 389.500 469.547 C 391.700 467.929, 393.725 466.335, 394 466.005 C 394.275 465.674, 396.075 464.315, 398 462.985 C 399.925 461.654, 402.016 460.101, 402.647 459.533 C 403.278 458.965, 405.896 456.925, 408.465 455 C 411.034 453.075, 414.627 450.262, 416.450 448.750 C 418.273 447.238, 420.044 446, 420.386 446 C 420.728 446, 424.269 443.545, 428.254 440.543 C 432.239 437.542, 437.525 433.605, 440 431.793 C 442.475 429.982, 445.065 427.967, 445.756 427.316 C 446.447 426.664, 447.909 425.846, 449.006 425.498 C 450.103 425.150, 451 424.476, 451 424 C 451 423.524, 451.821 422.874, 452.824 422.556 C 453.827 422.238, 455.539 421.195, 456.628 420.239 C 457.718 419.282, 459.298 418.050, 460.139 417.500 C 460.981 416.950, 466.306 413.350, 471.974 409.500 C 477.641 405.650, 483.779 401.600, 485.612 400.500 C 487.446 399.400, 489.746 397.818, 490.723 396.984 C 491.700 396.150, 494.750 394.164, 497.500 392.570 C 500.250 390.977, 502.725 389.408, 503 389.085 C 503.275 388.761, 504.738 387.859, 506.250 387.079 C 507.762 386.300, 509 385.288, 509 384.831 C 509 384.374, 509.481 384, 510.070 384 C 510.658 384, 513.021 382.726, 515.320 381.168 C 517.619 379.611, 520.175 378.018, 521 377.629 C 522.722 376.817, 524.781 375.569, 530.730 371.730 C 533.057 370.228, 535.419 369, 535.980 369 C 536.541 369, 537 368.550, 537 368 C 537 367.450, 537.590 367, 538.311 367 C 539.033 367, 540.496 366.212, 541.562 365.250 C 542.629 364.288, 545.302 362.568, 547.501 361.428 C 553.436 358.352, 561.361 353.901, 562.500 353.002 C 564.412 351.493, 577.284 344.466, 592.500 336.623 C 596.900 334.356, 600.725 332.252, 601 331.948 C 601.275 331.644, 603.300 330.580, 605.500 329.583 C 607.700 328.586, 614 325.630, 619.500 323.014 C 637.049 314.665, 640.684 313, 641.361 313 C 641.724 313, 644.154 312.055, 646.761 310.900 C 649.367 309.746, 652.513 308.396, 653.750 307.900 C 654.987 307.405, 657.125 306.550, 658.500 306 C 659.875 305.450, 662.237 304.490, 663.750 303.866 C 665.263 303.243, 667.625 302.290, 669 301.750 C 670.375 301.209, 672.175 300.456, 673 300.077 C 673.825 299.698, 678.550 298.127, 683.500 296.587 C 688.450 295.047, 693.281 293.384, 694.236 292.893 C 695.191 292.402, 696.852 292, 697.927 292 C 699.002 292, 700.160 291.550, 700.500 291 C 700.840 290.450, 702.415 290, 704 290 C 705.585 290, 707.160 289.550, 707.500 289 C 707.840 288.450, 709.415 288, 711 288 C 712.585 288, 714.160 287.550, 714.500 287 C 714.840 286.450, 716.576 286, 718.359 286 C 720.142 286, 722.027 285.596, 722.550 285.102 C 723.072 284.609, 725.300 283.963, 727.500 283.667 C 742.122 281.700, 753.122 279.957, 757 278.993 C 763.275 277.433, 770.736 275.980, 775.750 275.341 C 780.525 274.732, 781.088 273.322, 777.750 270.334 C 773.582 266.603, 744.479 258.854, 720 254.957 C 684.592 249.321, 648.715 247.827, 614.500 250.565 M 886.500 250.571 C 859.131 252.925, 835.325 256.813, 816 262.086 C 800.040 266.441, 794.418 268.393, 792.250 270.334 C 788.912 273.322, 789.475 274.732, 794.250 275.341 C 799.264 275.980, 806.725 277.433, 813 278.993 C 816.878 279.957, 827.878 281.700, 842.500 283.667 C 844.700 283.963, 846.927 284.609, 847.450 285.102 C 847.972 285.596, 849.858 286, 851.641 286 C 853.424 286, 855.160 286.450, 855.500 287 C 855.840 287.550, 857.415 288, 859 288 C 860.585 288, 862.160 288.450, 862.500 289 C 862.840 289.550, 864.415 290, 866 290 C 867.585 290, 869.160 290.450, 869.500 291 C 869.840 291.550, 870.998 292, 872.073 292 C 873.148 292, 874.809 292.402, 875.764 292.893 C 876.719 293.384, 881.550 295.047, 886.500 296.587 C 891.450 298.127, 896.175 299.698, 897 300.077 C 897.825 300.456, 899.625 301.209, 901 301.750 C 902.375 302.290, 904.850 303.303, 906.500 304 C 908.150 304.697, 910.400 305.597, 911.500 306 C 914.274 307.016, 917.690 308.442, 923.239 310.900 C 925.846 312.055, 928.276 313, 928.639 313 C 929.316 313, 932.951 314.665, 950.500 323.014 C 956 325.630, 962.300 328.586, 964.500 329.583 C 966.700 330.580, 968.725 331.644, 969 331.948 C 969.275 332.252, 973.100 334.356, 977.500 336.623 C 992.716 344.466, 1005.588 351.493, 1007.500 353.002 C 1008.639 353.901, 1016.564 358.352, 1022.499 361.428 C 1024.698 362.568, 1027.371 364.288, 1028.438 365.250 C 1029.504 366.212, 1030.967 367, 1031.689 367 C 1032.410 367, 1033 367.450, 1033 368 C 1033 368.550, 1033.459 369, 1034.020 369 C 1034.581 369, 1036.943 370.228, 1039.270 371.730 C 1045.219 375.569, 1047.278 376.817, 1049 377.629 C 1049.825 378.018, 1052.381 379.611, 1054.680 381.168 C 1056.979 382.726, 1059.342 384, 1059.930 384 C 1060.519 384, 1061 384.374, 1061 384.831 C 1061 385.288, 1062.237 386.300, 1063.750 387.079 C 1065.263 387.859, 1066.725 388.761, 1067 389.085 C 1067.275 389.408, 1069.750 390.977, 1072.500 392.570 C 1075.250 394.164, 1078.300 396.150, 1079.277 396.984 C 1080.254 397.818, 1082.554 399.400, 1084.388 400.500 C 1086.221 401.600, 1092.359 405.650, 1098.026 409.500 C 1103.694 413.350, 1109.019 416.950, 1109.861 417.500 C 1110.702 418.050, 1112.282 419.282, 1113.372 420.239 C 1114.461 421.195, 1116.173 422.238, 1117.176 422.556 C 1118.179 422.874, 1119 423.524, 1119 424 C 1119 424.476, 1119.897 425.150, 1120.994 425.498 C 1122.091 425.846, 1123.553 426.664, 1124.244 427.316 C 1124.935 427.967, 1127.525 429.982, 1130 431.793 C 1132.475 433.605, 1137.761 437.542, 1141.746 440.543 C 1145.731 443.545, 1149.272 446, 1149.614 446 C 1149.956 446, 1151.727 447.238, 1153.550 448.750 C 1155.373 450.262, 1158.966 453.075, 1161.535 455 C 1164.104 456.925, 1166.722 458.965, 1167.353 459.533 C 1167.984 460.101, 1170.075 461.654, 1172 462.985 C 1173.925 464.315, 1175.725 465.674, 1176 466.005 C 1176.275 466.335, 1178.300 467.929, 1180.500 469.547 C 1182.700 471.165, 1184.725 472.729, 1185 473.022 C 1185.275 473.316, 1188.875 476.100, 1193 479.210 C 1197.125 482.320, 1201.721 485.907, 1203.213 487.182 C 1204.706 488.457, 1208.691 491.750, 1212.070 494.500 C 1215.449 497.250, 1220.593 501.525, 1223.500 504 C 1226.407 506.475, 1231.574 510.750, 1234.982 513.500 C 1238.390 516.250, 1242.600 519.851, 1244.339 521.503 C 1246.077 523.155, 1249.750 526.305, 1252.500 528.503 C 1255.250 530.701, 1258.625 533.625, 1260 535 C 1261.375 536.375, 1265.200 539.742, 1268.500 542.483 C 1271.800 545.224, 1275.625 548.599, 1277 549.983 C 1278.375 551.367, 1281.300 554.027, 1283.500 555.893 C 1314.233 581.961, 1399.702 668.598, 1428.130 702.500 C 1429.975 704.700, 1432.163 707.175, 1432.992 708 C 1434.428 709.428, 1442.814 719.346, 1446 723.384 C 1446.825 724.430, 1449.300 727.418, 1451.500 730.024 C 1453.700 732.631, 1457.525 737.340, 1460 740.488 C 1462.475 743.636, 1466.075 748.171, 1468 750.566 C 1469.925 752.961, 1472.850 756.739, 1474.500 758.961 C 1476.150 761.183, 1478.730 764.463, 1480.234 766.251 C 1481.738 768.038, 1482.975 769.795, 1482.984 770.155 C 1482.993 770.516, 1484.603 772.766, 1486.562 775.155 C 1488.520 777.545, 1490.770 780.293, 1491.562 781.261 C 1492.353 782.230, 1493 783.256, 1493 783.540 C 1493 783.825, 1495.250 786.957, 1498 790.500 C 1500.750 794.043, 1503 797.223, 1503 797.565 C 1503 797.908, 1505.025 800.851, 1507.500 804.105 C 1509.975 807.360, 1512 810.247, 1512 810.521 C 1512 810.796, 1513.575 813.261, 1515.500 816 C 1517.425 818.739, 1519 821.364, 1519 821.835 C 1519 822.305, 1519.900 823.505, 1521 824.500 C 1522.100 825.495, 1523 826.915, 1523 827.655 C 1523 828.395, 1523.450 829, 1524 829 C 1524.550 829, 1525 829.590, 1525 830.311 C 1525 831.033, 1525.787 832.518, 1526.750 833.612 C 1527.713 834.707, 1528.990 836.479, 1529.590 837.551 C 1530.189 838.623, 1531.929 841.750, 1533.455 844.500 C 1534.982 847.250, 1537.008 850.625, 1537.958 852 C 1538.908 853.375, 1540.316 855.962, 1541.087 857.750 C 1541.858 859.538, 1542.828 861, 1543.244 861 C 1543.660 861, 1544 861.401, 1544 861.892 C 1544 863.093, 1552.902 879.048, 1554.801 881.250 C 1556.808 883.577, 1561.262 883.473, 1563.457 881.047 C 1565.017 879.324, 1565.148 877.767, 1564.571 867.797 C 1564.212 861.584, 1563.510 853.575, 1563.012 850 C 1562.514 846.425, 1561.590 839.675, 1560.958 835 C 1554.914 790.256, 1542.987 745.524, 1524.600 698.643 C 1495.457 624.333, 1450.378 550.748, 1395.558 488 C 1367.355 455.718, 1327.447 417.228, 1299.962 395.801 C 1298.058 394.316, 1292 389.582, 1286.500 385.281 C 1235.044 345.041, 1172.573 309.564, 1113.500 287.035 C 1094.739 279.880, 1092.811 279.192, 1081.500 275.605 C 1048.942 265.282, 1017.850 258.127, 988 254.088 C 983.875 253.530, 978.700 252.816, 976.500 252.501 C 974.300 252.187, 963.950 251.277, 953.500 250.480 C 930.973 248.761, 907.167 248.793, 886.500 250.571 M 763 421.555 C 746.065 424.905, 734.792 429.229, 720.500 437.859 C 717.200 439.852, 714.275 441.714, 714 441.997 C 713.725 442.280, 711.700 443.842, 709.500 445.469 C 704.588 449.100, 690.326 463.233, 686.762 468 C 680.136 476.862, 670.528 498.327, 667.960 510 C 667.295 513.025, 666.357 516.805, 665.875 518.399 C 664.363 523.408, 664.836 552.704, 666.563 561 C 676.531 608.872, 711.849 644.287, 760 654.692 C 770.387 656.936, 799.613 656.936, 810 654.692 C 858.151 644.287, 893.469 608.872, 903.437 561 C 905.164 552.704, 905.637 523.408, 904.125 518.399 C 903.643 516.805, 902.705 513.025, 902.040 510 C 899.472 498.327, 889.864 476.862, 883.238 468 C 879.674 463.233, 865.412 449.100, 860.500 445.469 C 858.300 443.842, 856.275 442.280, 856 441.997 C 855.725 441.714, 852.800 439.852, 849.500 437.859 C 834.759 428.958, 823.717 424.793, 806 421.453 C 796.746 419.709, 772.042 419.767, 763 421.555 M 339.750 528.036 C 336.754 531.303, 336.254 533.500, 338.327 534.295 C 339.551 534.765, 369.927 559.385, 374.522 563.631 C 377.089 566.004, 390.412 577.708, 394.939 581.568 C 396.831 583.180, 401.106 586.932, 404.439 589.904 C 412.523 597.113, 416.019 600.200, 425.502 608.500 C 429.901 612.350, 433.725 615.742, 434 616.037 C 434.275 616.333, 441.925 623.083, 451 631.037 C 460.075 638.992, 467.725 645.725, 468 646 C 468.275 646.275, 472.100 649.646, 476.500 653.491 C 480.900 657.336, 484.725 660.715, 485 661 C 485.275 661.285, 489.100 664.664, 493.500 668.509 C 497.900 672.354, 501.725 675.725, 502 676 C 502.275 676.275, 506.100 679.646, 510.500 683.491 C 514.900 687.336, 518.725 690.735, 519 691.044 C 520.586 692.824, 568.610 734.884, 571.188 736.750 C 574.172 738.911, 575.117 739, 594.988 739 C 606.369 739, 623.200 739.297, 632.390 739.659 C 647.053 740.237, 649.218 740.539, 650.063 742.118 C 650.640 743.196, 651.440 782.142, 652.058 839.209 C 652.625 891.619, 653.517 971.400, 654.040 1016.500 C 656.082 1192.712, 656.718 1261.530, 656.308 1262.250 C 656.074 1262.662, 638.168 1263, 616.518 1263 L 577.153 1263 573.938 1265.706 L 570.722 1268.412 571.463 1282.956 C 571.871 1290.955, 572.496 1303.108, 572.852 1309.962 L 573.500 1322.424 576.500 1322.962 C 578.150 1323.258, 622.700 1323.275, 675.500 1323 L 771.500 1322.500 771.430 1317 C 771.391 1313.975, 771.051 1260.425, 770.675 1198 C 770.299 1135.575, 769.749 1067.175, 769.453 1046 C 769.158 1024.825, 768.505 938.672, 768.003 854.549 C 767.120 706.623, 767.027 701.513, 765.190 699.049 L 763.291 696.500 741.895 695.883 C 730.128 695.543, 686.975 694.725, 646 694.065 C 605.025 693.404, 569.888 692.509, 567.918 692.076 C 565.509 691.546, 554.542 683.886, 534.418 668.679 C 474.956 623.743, 449.309 604.320, 439 596.416 C 433.225 591.989, 419.280 581.422, 408.012 572.933 C 396.743 564.445, 380.543 551.922, 372.012 545.105 C 363.480 538.288, 354.926 531.821, 353.003 530.734 C 351.080 529.647, 348.432 527.912, 347.118 526.879 C 343.923 524.365, 342.981 524.513, 339.750 528.036 M 1222.882 526.879 C 1221.568 527.912, 1218.920 529.647, 1216.997 530.734 C 1215.074 531.821, 1206.521 538.288, 1197.991 545.105 C 1189.460 551.922, 1172.360 565.125, 1159.991 574.444 C 1147.621 583.763, 1134.800 593.468, 1131.500 596.010 C 1128.200 598.553, 1115.150 608.449, 1102.500 618.001 C 1089.850 627.553, 1075 638.816, 1069.500 643.028 C 1064 647.241, 1047.216 659.953, 1032.203 671.278 C 1006.492 690.671, 1004.603 691.901, 999.703 692.444 C 996.841 692.761, 962.100 693.518, 922.500 694.127 C 882.900 694.735, 840.647 695.518, 828.605 695.866 L 806.710 696.500 804.809 699.050 C 802.970 701.517, 802.878 706.600, 801.996 855.050 C 801.494 939.448, 800.841 1025.375, 800.546 1046 C 800.251 1066.625, 799.702 1134.800, 799.326 1197.500 C 798.950 1260.200, 798.610 1313.975, 798.571 1317 L 798.500 1322.500 894.500 1323 C 947.300 1323.275, 991.850 1323.258, 993.500 1322.962 L 996.500 1322.424 997.148 1309.962 C 997.504 1303.108, 998.129 1290.955, 998.537 1282.956 L 999.278 1268.412 996.062 1265.706 L 992.847 1263 953.482 1263 C 931.832 1263, 913.926 1262.662, 913.692 1262.250 C 913.282 1261.530, 913.918 1192.712, 915.960 1016.500 C 916.483 971.400, 917.375 891.619, 917.942 839.209 C 918.560 782.142, 919.360 743.196, 919.937 742.118 C 920.782 740.539, 922.947 740.237, 937.610 739.659 C 946.800 739.297, 963.631 739, 975.012 739 C 994.883 739, 995.828 738.911, 998.812 736.750 C 1001.354 734.910, 1049.318 692.911, 1051 691.052 C 1051.275 690.749, 1055.100 687.354, 1059.500 683.509 C 1063.900 679.664, 1067.725 676.289, 1068 676.009 C 1068.275 675.729, 1072.100 672.354, 1076.500 668.509 C 1080.900 664.664, 1084.725 661.285, 1085 661 C 1085.275 660.715, 1089.100 657.336, 1093.500 653.491 C 1097.900 649.646, 1101.725 646.275, 1102 646 C 1102.275 645.725, 1109.925 638.992, 1119 631.037 C 1128.075 623.083, 1135.725 616.333, 1136 616.037 C 1136.275 615.742, 1140.099 612.350, 1144.498 608.500 C 1153.981 600.200, 1157.477 597.113, 1165.561 589.904 C 1168.894 586.932, 1173.169 583.180, 1175.061 581.568 C 1179.588 577.708, 1192.911 566.004, 1195.478 563.631 C 1200.073 559.385, 1230.449 534.765, 1231.673 534.295 C 1233.780 533.487, 1233.230 531.222, 1230.142 527.991 C 1226.791 524.485, 1226.066 524.374, 1222.882 526.879" stroke="none" fill="#000000" fill-rule="evenodd"/>
</svg>