<svg xmlns="http://www.w3.org/2000/svg" width="512" height="513" viewBox="0 0 512 513" version="1.1">
	<path d="M 227 114.122 C 217.066 115.264, 200.748 119.398, 190.034 123.487 C 135.764 144.197, 89.113 192.915, 70.634 248.174 C 65.202 264.418, 60.965 288.373, 63.147 290.500 C 64.377 291.699, 65.270 290.564, 72.045 279.187 C 110.416 214.750, 212.830 132.702, 267.653 122.477 C 282.623 119.685, 282.897 119.306, 271.904 116.605 C 257.768 113.131, 242.808 112.304, 227 114.122 M 308 113.591 C 295.180 115.103, 281.721 118.722, 284.104 120.015 C 284.872 120.431, 288.875 121.331, 293 122.013 C 316.753 125.944, 348.237 142.046, 384 168.554 C 429.757 202.470, 473.035 247.667, 492.974 282.361 C 498.733 292.381, 500.631 292.944, 500.179 284.500 C 499.316 268.342, 492.529 244.956, 483.058 225.500 C 456.127 170.181, 402.946 127.338, 347.162 116.023 C 337.254 114.014, 315.741 112.677, 308 113.591 M 273.383 161.885 C 262.891 164.604, 253.760 172.694, 250.059 182.551 C 248.291 187.258, 247.899 190.065, 248.178 196 C 248.779 208.750, 255.183 218.503, 266.669 224.158 C 272.462 227.010, 274.232 227.399, 281.377 227.394 C 287.982 227.390, 290.551 226.907, 295.120 224.809 C 302.364 221.484, 307.880 216.450, 311.562 209.804 C 314.263 204.927, 314.500 203.695, 314.499 194.500 C 314.499 185.604, 314.205 183.944, 311.839 179.460 C 308.599 173.320, 301.417 166.514, 295.343 163.828 C 290.385 161.634, 278.432 160.577, 273.383 161.885 M 156 191.874 C 156 192.355, 159.938 196.125, 164.750 200.253 C 169.563 204.380, 184.525 217.486, 198 229.378 L 222.500 250.998 233.131 250.999 L 243.761 251 244.385 306.750 C 244.728 337.413, 245.142 370.474, 245.305 380.220 L 245.600 397.940 234.050 398.220 L 222.500 398.500 222.210 406.750 L 221.919 415 249.714 415 L 277.508 415 277.248 336.250 C 277.104 292.938, 276.728 253.402, 276.411 248.394 L 275.835 239.288 266.764 238.644 C 261.775 238.290, 249.286 238, 239.012 238 L 220.331 238 194.542 218.425 C 180.357 207.659, 166.517 197.084, 163.786 194.925 C 159.048 191.180, 156 189.986, 156 191.874 M 398.842 195.321 C 395.904 197.698, 382.089 208.273, 368.143 218.821 L 342.786 238 324.047 238 C 313.740 238, 301.250 238.288, 296.291 238.640 L 287.275 239.280 286.648 254.390 C 286.303 262.700, 285.944 302.125, 285.850 342 L 285.680 414.500 313.194 414.766 L 340.707 415.031 341.300 407.958 C 341.626 404.068, 341.644 400.236, 341.340 399.443 C 340.902 398.303, 338.396 398, 329.393 398 L 318 398 318 369.664 C 318 354.079, 318.298 321.004, 318.663 296.164 L 319.326 251 329.955 251 L 340.585 251 368.542 226.371 C 383.919 212.826, 398.837 199.888, 401.694 197.621 C 406.827 193.548, 408.327 191, 405.592 191 C 404.817 191, 401.780 192.945, 398.842 195.321 M 71.226 364.832 C 64.991 367.483, 64.877 367.606, 52.977 384.434 C 46.391 393.748, 40.024 402.410, 38.827 403.684 L 36.651 406 41.326 406 C 44.707 406, 46 405.605, 46 404.573 C 46 403.789, 47.886 400.414, 50.191 397.073 L 54.382 391 61.084 391 C 66.288 391, 67.922 391.355, 68.396 392.590 C 68.732 393.465, 68.753 394.590, 68.444 395.090 C 68.124 395.608, 71.346 396, 75.916 396 L 83.950 396 83.485 393.250 C 82.892 389.737, 80 364.813, 80 363.210 C 80 361.494, 78.364 361.797, 71.226 364.832 M 183.226 364.832 C 176.991 367.483, 176.877 367.606, 164.977 384.434 C 158.391 393.748, 152.024 402.410, 150.827 403.684 L 148.651 406 153.326 406 C 156.707 406, 158 405.605, 158 404.573 C 158 403.789, 159.886 400.414, 162.191 397.073 L 166.382 391 173.084 391 C 178.288 391, 179.922 391.355, 180.396 392.590 C 180.732 393.465, 180.753 394.590, 180.444 395.090 C 180.124 395.608, 183.346 396, 187.916 396 L 195.950 396 195.485 393.250 C 194.892 389.737, 192 364.813, 192 363.210 C 192 361.494, 190.364 361.797, 183.226 364.832 M 13.455 366.927 C 14.131 368.021, 9.361 391.705, 7.952 394.250 C 7.067 395.848, 7.640 396, 14.535 396 C 20.039 396, 22.022 395.661, 21.847 394.750 C 21.715 394.063, 21.948 391.363, 22.365 388.750 L 23.123 384 27.607 384 L 32.091 384 31.405 387.750 C 31.028 389.813, 30.344 392.512, 29.885 393.750 C 29.071 395.943, 29.220 396, 35.775 396 L 42.500 396 44.870 383.750 C 46.173 377.012, 47.826 370.262, 48.543 368.750 L 49.847 366 42.563 366 L 35.279 366 34.674 371.106 C 33.919 377.477, 32.682 379, 28.264 379 L 24.773 379 25.485 374.250 C 25.877 371.637, 26.619 368.712, 27.134 367.750 C 27.988 366.155, 27.399 366, 20.476 366 C 16.067 366, 13.122 366.389, 13.455 366.927 M 91.625 369.125 C 91.281 370.844, 91 372.534, 91 372.882 C 91 373.230, 93.084 373.349, 95.630 373.146 L 100.260 372.778 99.601 377.139 C 99.238 379.538, 98.128 384.762, 97.134 388.750 L 95.326 396 101.941 396 L 108.555 396 110.914 384.500 C 113.120 373.742, 113.425 373, 115.636 373 C 117.246 373, 118 373.574, 118 374.801 C 118 377.258, 114.406 393.534, 113.562 394.900 C 113.090 395.663, 115.181 396, 120.379 396 C 126.887 396, 127.864 395.769, 127.784 394.250 C 127.670 392.093, 131.886 371.430, 133.081 368.286 L 133.950 366 113.100 366 L 92.250 366 91.625 369.125 M 136.552 367.250 C 134.660 373.393, 134.739 373.524, 140.143 373.147 C 144.669 372.831, 145.146 372.988, 144.686 374.647 C 144.403 375.666, 143.427 380.100, 142.516 384.500 C 141.606 388.900, 140.637 393.288, 140.363 394.250 C 139.922 395.800, 140.681 396, 146.992 396 C 150.911 396, 153.902 395.650, 153.637 395.222 C 153.373 394.795, 154.134 389.732, 155.328 383.972 L 157.500 373.500 162.295 373.500 C 166.600 373.500, 167.146 373.244, 167.629 371 C 167.925 369.625, 168.340 367.938, 168.552 367.250 C 168.849 366.286, 165.276 366, 152.937 366 C 141.009 366, 136.839 366.318, 136.552 367.250 M 206.239 366.653 C 204.211 367.491, 203.190 370.157, 200.966 380.421 C 198.473 391.929, 198.631 394.178, 202 395.109 C 205.876 396.181, 227.911 396.118, 229.945 395.029 C 231.592 394.148, 235 387.372, 235 384.980 C 235 384.441, 232.174 384, 228.719 384 C 222.659 384, 222.399 384.105, 221.306 387 C 220.297 389.673, 219.719 390, 215.999 390 L 211.824 390 212.523 385.865 C 212.907 383.591, 213.734 379.654, 214.361 377.115 C 215.478 372.587, 215.576 372.500, 219.500 372.500 C 223.136 372.500, 223.529 372.754, 223.821 375.296 C 224.138 378.058, 224.216 378.088, 230.321 377.796 L 236.500 377.500 236.500 372 L 236.500 366.500 222 366.316 C 214.025 366.214, 206.932 366.366, 206.239 366.653 M 325.590 379.750 C 324.048 387.313, 322.330 394.063, 321.771 394.750 C 320.975 395.729, 322.354 395.998, 328.128 395.991 L 335.500 395.982 338.167 382.741 C 339.634 375.458, 341.145 368.712, 341.524 367.750 C 342.141 366.186, 341.481 366, 335.303 366 L 328.393 366 325.590 379.750 M 345.686 379.575 C 344.142 387.042, 342.633 393.792, 342.333 394.575 C 341.892 395.724, 343.133 396, 348.741 396 C 355.634 396, 355.697 395.975, 355.809 393.250 C 355.872 391.738, 356.750 386.737, 357.759 382.138 L 359.596 373.776 366.893 382.441 C 372.887 389.559, 374.080 391.544, 373.576 393.553 C 372.967 395.981, 373.019 396, 380.231 396 L 387.500 396 389.870 383.750 C 391.173 377.012, 392.826 370.262, 393.543 368.750 L 394.847 366 387.104 366 L 379.360 366 378.061 374 C 377.347 378.400, 376.478 381.978, 376.131 381.952 C 375.784 381.926, 372.598 378.326, 369.052 373.952 L 362.604 366 355.548 366 L 348.492 366 345.686 379.575 M 398.536 367.960 C 396.655 370.039, 392.122 389.220, 392.782 392.307 C 392.995 393.301, 394.285 394.538, 395.649 395.057 C 398.986 396.326, 420.641 396.263, 423.043 394.977 C 425.170 393.839, 426.801 391.182, 428.053 386.816 L 428.886 383.911 422.235 384.206 C 416.068 384.479, 415.541 384.682, 415.002 387 C 414.511 389.109, 413.762 389.548, 410.210 389.807 C 404.934 390.193, 404.923 390.087, 408.541 374.194 C 409.002 372.168, 409.578 371.925, 413.283 372.194 C 417.050 372.467, 417.534 372.793, 417.816 375.250 C 418.122 377.903, 418.341 378, 424.021 378 L 429.909 378 430.565 374.507 C 430.925 372.585, 430.937 369.885, 430.591 368.507 L 429.962 366 415.136 366 C 401.680 366, 400.146 366.181, 398.536 367.960 M 61.750 380.478 C 59.688 383.449, 58 386.357, 58 386.940 C 58 388.133, 66.639 388.420, 67.316 387.250 C 67.950 386.153, 66.863 374.993, 66.126 375.038 C 65.782 375.059, 63.813 377.507, 61.750 380.478 M 173.750 380.478 C 171.688 383.449, 170 386.357, 170 386.940 C 170 388.133, 178.639 388.420, 179.316 387.250 C 179.950 386.153, 178.863 374.993, 178.126 375.038 C 177.782 375.059, 175.813 377.507, 173.750 380.478 M 430 391.418 C 430 392.198, 429.727 393.548, 429.393 394.418 C 428.880 395.754, 429.735 396, 434.893 396 C 438.252 396, 441.006 395.663, 441.014 395.250 C 441.021 394.837, 441.299 393.488, 441.630 392.250 C 442.207 390.096, 441.972 390, 436.117 390 C 431.503 390, 430 390.349, 430 391.418" stroke="none" fill="#000000" fill-rule="evenodd"/>
</svg>