<svg xmlns="http://www.w3.org/2000/svg" width="1566" height="1568" viewBox="0 0 1566 1568" version="1.1">
	<path d="M 1195 308.500 C 1195 309.325, 1195.675 310, 1196.500 310 C 1197.325 310, 1198 309.325, 1198 308.500 C 1198 307.675, 1197.325 307, 1196.500 307 C 1195.675 307, 1195 307.675, 1195 308.500 M 699.500 339.635 C 634.176 346.542, 578.076 367.293, 520 406.031 C 495.047 422.675, 476.002 438.186, 453.122 460.500 C 376.245 535.476, 328.506 631.072, 320.501 726.071 C 319.986 732.184, 320.156 733.884, 321.383 734.903 C 324.389 737.397, 326.436 735.514, 332.703 724.491 C 352.626 689.441, 376.508 656.500, 407.728 621 C 412.323 615.775, 418.652 608.575, 421.791 605 C 428.221 597.679, 476.281 549.370, 485.494 540.967 C 496.835 530.623, 533.506 498.687, 537.591 495.595 C 539.841 493.893, 547.041 488.210, 553.591 482.967 C 583.821 458.770, 620.993 432.863, 653.530 413.317 C 672.397 401.982, 690.075 392.354, 704.500 385.554 C 710 382.961, 715.850 380.195, 717.500 379.407 C 723.490 376.547, 735.669 371.762, 743 369.388 C 747.125 368.053, 751.400 366.533, 752.500 366.011 C 756.223 364.243, 779.246 359.105, 795.750 356.358 C 811.545 353.729, 809.813 351.724, 786.872 346.088 C 766.347 341.045, 755.921 339.873, 728.500 339.527 C 714.750 339.354, 701.700 339.402, 699.500 339.635 M 870.500 339.630 C 850.619 341.743, 820.944 347.819, 815.021 350.989 C 811.099 353.088, 812.754 354.664, 820.250 355.968 C 848.314 360.850, 856.563 362.769, 872.175 368.046 C 878.954 370.337, 884.950 372.559, 885.500 372.983 C 886.050 373.408, 887.625 374.095, 889 374.509 C 902.589 378.608, 947.698 401.960, 974 418.512 C 979.838 422.186, 1021.179 449.831, 1026.114 453.362 C 1038.237 462.034, 1066.648 483.781, 1076.500 491.930 C 1082.550 496.934, 1089.266 502.485, 1091.424 504.264 C 1134.074 539.428, 1197.858 603.216, 1227.227 640.077 C 1228.727 641.960, 1233.350 647.713, 1237.499 652.863 C 1243.613 660.449, 1261.130 684.418, 1265.500 691.177 C 1266.050 692.027, 1268.658 696.048, 1271.296 700.112 C 1273.934 704.175, 1278.949 712.450, 1282.441 718.500 C 1291.588 734.350, 1292.336 735.441, 1294.311 735.821 C 1297.913 736.515, 1299.109 734.152, 1298.473 727.600 C 1294.991 691.772, 1289.322 665.546, 1278.348 634.500 C 1250.352 555.296, 1198.601 483.713, 1129.281 428.307 C 1070.762 381.533, 1002.619 351.042, 935 341.373 C 924.881 339.926, 879.302 338.694, 870.500 339.630 M 790.500 447.890 C 756.487 457.134, 734 485.834, 734 520 C 734 552.794, 754.212 580.177, 786.500 591.126 C 792.786 593.258, 795.183 593.495, 810 593.447 C 825.319 593.398, 827.027 593.202, 833.871 590.715 C 844.815 586.738, 853.333 581.594, 861.091 574.275 C 885.787 550.978, 891.819 517.084, 876.767 486.192 C 873.281 479.038, 870.932 475.907, 863.492 468.500 C 853.153 458.206, 846.670 454.040, 834.261 449.717 C 826.420 446.985, 824.030 446.629, 811.500 446.326 C 800.096 446.051, 796.202 446.341, 790.500 447.890 M 529.494 514.006 C 528.496 515.110, 527.864 516.156, 528.089 516.331 C 542.296 527.352, 558.659 541.594, 664.915 635.421 L 676.329 645.500 700.083 646 C 713.148 646.275, 724.156 646.819, 724.545 647.210 C 725.158 647.824, 727.096 800.621, 728.157 932 L 728.500 974.500 703.262 974.767 L 678.024 975.034 676.483 977.386 C 675.185 979.367, 675.049 982.114, 675.622 994.804 C 675.996 1003.090, 676.618 1010.382, 677.004 1011.007 C 677.517 1011.837, 694.219 1012.115, 739.053 1012.038 C 772.794 1011.981, 800.495 1011.836, 800.610 1011.717 C 800.726 1011.598, 800.208 923.788, 799.459 816.584 C 798.354 658.554, 797.848 621.420, 796.785 620.357 C 795.763 619.334, 783.609 618.824, 741.487 618.035 C 711.794 617.478, 684.061 617.018, 679.859 617.012 L 672.218 617 644.859 596.219 C 629.811 584.789, 603.325 564.689, 586 551.553 C 568.675 538.417, 551.350 525.130, 547.500 522.027 C 540.137 516.093, 533.928 512, 532.287 512 C 531.750 512, 530.493 512.903, 529.494 514.006 M 1081.500 514.306 C 1079.850 515.513, 1074.450 519.697, 1069.500 523.604 C 1060.950 530.354, 1051.647 537.415, 977.839 593.177 L 946.500 616.854 885.023 617.939 C 834.130 618.838, 823.300 619.271, 822.117 620.454 C 820.898 621.673, 820.491 650.448, 819.342 816.605 C 818.601 923.703, 818.128 1011.461, 818.291 1011.625 C 818.705 1012.038, 941.102 1012.248, 941.428 1011.835 C 941.573 1011.651, 942.178 1004.300, 942.771 995.500 C 943.683 981.975, 943.627 979.155, 942.413 977.267 C 940.997 975.066, 940.619 975.031, 915.738 974.767 L 890.500 974.500 890.151 961.500 C 889.959 954.350, 890.340 910.925, 890.997 865 C 891.653 819.075, 892.496 751.489, 892.869 714.809 C 893.243 678.129, 893.912 647.754, 894.356 647.309 C 894.800 646.864, 905.815 646.275, 918.832 646 L 942.500 645.500 984.447 608.500 C 1063.482 538.786, 1069.952 533.125, 1079.967 524.929 C 1085.485 520.413, 1090 516.122, 1090 515.394 C 1090 514.108, 1086.962 511.943, 1085.316 512.056 C 1084.867 512.086, 1083.150 513.099, 1081.500 514.306 M 342.181 899.870 L 325.861 906.420 298.350 945.460 C 283.220 966.932, 268.963 986.186, 266.670 988.247 L 262.500 991.995 272.750 991.997 L 283 992 283 989.475 C 283 987.901, 286.670 981.706, 292.750 973.019 L 302.500 959.087 317.705 959.043 L 332.909 959 333.596 962.659 C 334.010 964.869, 333.830 967.042, 333.141 968.146 C 332.514 969.151, 331.999 970.091, 331.999 970.236 C 331.998 970.381, 340.256 970.369, 350.349 970.208 L 368.700 969.917 367.822 966.208 C 367.340 964.169, 365.137 946.992, 362.927 928.038 C 360.718 909.085, 358.818 893.519, 358.705 893.449 C 358.592 893.378, 351.156 896.268, 342.181 899.870 M 592.181 899.870 L 575.861 906.420 548.350 945.460 C 533.220 966.932, 518.963 986.186, 516.670 988.247 L 512.500 991.995 522.750 991.997 L 533 992 533 989.475 C 533 987.901, 536.670 981.706, 542.750 973.019 L 552.500 959.087 567.705 959.043 L 582.909 959 583.596 962.659 C 584.010 964.869, 583.830 967.042, 583.141 968.146 C 582.514 969.151, 581.999 970.091, 581.999 970.236 C 581.998 970.381, 590.256 970.369, 600.349 970.208 L 618.700 969.917 617.822 966.208 C 617.340 964.169, 615.137 946.992, 612.927 928.038 C 610.718 909.085, 608.818 893.519, 608.705 893.449 C 608.592 893.378, 601.156 896.268, 592.181 899.870 M 211.382 905.385 C 212.310 909.083, 200.416 963.907, 197.960 967.250 L 195.940 970 212.720 970 L 229.500 970 229.536 964.250 C 229.556 961.087, 230.388 955.013, 231.386 950.750 L 233.201 943 242.600 943 C 249.313 943, 252 943.348, 252 944.216 C 252 947.691, 247.568 965.719, 246.380 967.079 C 245.621 967.947, 245 968.960, 245 969.329 C 245 969.698, 252.397 970, 261.437 970 L 277.874 970 277.351 966.750 C 276.605 962.115, 287.611 910.296, 290.087 906.790 C 291.139 905.300, 292 903.838, 292 903.540 C 292 903.243, 284.334 903, 274.965 903 C 258.022 903, 257.936 903.011, 259.043 905.080 C 259.902 906.685, 259.669 909.479, 258.021 917.330 C 256.847 922.923, 255.656 928.288, 255.376 929.250 C 254.936 930.757, 253.555 931, 245.433 931 C 240.245 931, 236.002 930.663, 236.005 930.250 C 236.032 926.388, 241.199 906.438, 242.563 904.930 C 244.282 903.030, 244.045 903, 227.547 903 L 210.783 903 211.382 905.385 M 393.776 903.795 L 387.053 904.090 386.109 907.795 C 385.589 909.833, 384.869 913.075, 384.508 915 C 384.146 916.925, 383.600 919.378, 383.294 920.451 C 382.758 922.329, 382.835 922.338, 385.334 920.701 C 387.265 919.435, 390.114 919, 396.465 919 C 401.159 919, 405 919.306, 405 919.679 C 405 922.005, 395.715 963.960, 394.748 966 C 394.097 967.375, 393.400 968.837, 393.199 969.250 C 392.998 969.663, 400.079 970, 408.936 970 L 425.038 970 424.488 967.750 C 424.050 965.960, 431.414 928, 433.606 920.750 C 434.025 919.363, 435.262 919, 439.567 919 C 444.077 919, 444.999 919.297, 444.995 920.750 C 444.984 924.817, 435.910 964.489, 434.498 966.644 L 432.954 969 450.012 969 C 465.943 969, 467.009 968.884, 466.148 967.250 C 465.046 965.160, 476.154 911.091, 478.578 906.750 L 480.113 904 469.807 903.901 C 437.641 903.592, 399.614 903.539, 393.776 903.795 M 492.776 903.763 L 486.053 904.090 485.109 907.795 C 484.589 909.833, 483.869 913.075, 483.508 915 C 483.146 916.925, 482.600 919.378, 482.294 920.451 C 481.758 922.329, 481.835 922.338, 484.334 920.701 C 486.265 919.435, 489.114 919, 495.465 919 C 500.159 919, 504 919.306, 504 919.679 C 504 922.005, 494.715 963.960, 493.748 966 C 493.097 967.375, 492.400 968.837, 492.199 969.250 C 491.998 969.663, 499.079 970, 507.936 970 L 524.038 970 523.488 967.750 C 523.050 965.960, 530.414 928, 532.606 920.750 C 533.054 919.266, 534.399 919, 541.445 919 C 547.612 919, 550.076 919.387, 551 920.500 C 551.685 921.325, 552.582 922, 552.995 922 C 553.804 922, 557.585 905.216, 556.908 904.629 C 556.323 904.123, 500.808 903.373, 492.776 903.763 M 640.952 905.253 C 639.113 906.493, 636.814 908.867, 635.843 910.529 C 633.542 914.469, 624.849 955.321, 625.217 960.467 C 625.446 963.680, 626.125 964.854, 628.785 966.642 C 633.271 969.655, 640.063 970.203, 668.179 969.821 C 690.366 969.520, 692.037 969.368, 694.679 967.408 C 699.768 963.634, 702.930 957.269, 705.439 945.750 L 706.038 943 691.558 943 L 677.077 943 676.032 947.250 C 673.824 956.227, 673.468 956.500, 663.962 956.500 L 655.500 956.500 655.179 953.149 C 654.809 949.286, 660.697 920.120, 662.224 918.250 C 662.882 917.444, 666.017 917, 671.051 917 C 680.729 917, 682.458 918.244, 681.732 924.681 L 681.246 929 695.006 929 C 710.954 929, 709.627 930.061, 710.636 916.500 C 711.173 909.273, 711.020 908.234, 709.043 905.750 L 706.855 903 675.575 903 C 644.779 903, 644.244 903.035, 640.952 905.253 M 957.379 905.374 C 958.138 908.396, 946.495 963.595, 944.437 966.737 L 942.954 969 959.512 969 C 975.189 969, 976.019 968.904, 975.100 967.188 C 974.404 965.886, 975.465 959.071, 978.864 943.020 L 983.597 920.664 999.051 939.082 C 1007.550 949.212, 1015.039 958.188, 1015.691 959.029 C 1016.627 960.234, 1016.478 961.450, 1014.988 964.779 L 1013.098 969 1030.410 969 L 1047.723 969 1047.259 966.577 C 1046.539 962.808, 1057.899 909.974, 1060.114 906.790 C 1061.151 905.300, 1062 903.838, 1062 903.540 C 1062 903.243, 1053.911 903, 1044.025 903 L 1026.050 903 1026.909 905.260 C 1027.497 906.808, 1026.741 912.338, 1024.511 922.800 C 1022.719 931.204, 1021.032 938.301, 1020.762 938.572 C 1020.492 938.842, 1013.568 931.061, 1005.375 921.281 L 990.480 903.500 973.625 903.225 L 956.771 902.951 957.379 905.374 M 1072.952 905.253 C 1071.113 906.493, 1068.814 908.867, 1067.843 910.529 C 1065.542 914.469, 1056.849 955.321, 1057.217 960.467 C 1057.446 963.680, 1058.125 964.854, 1060.785 966.642 C 1065.271 969.655, 1072.063 970.203, 1100.179 969.821 C 1122.366 969.520, 1124.037 969.368, 1126.679 967.408 C 1131.768 963.634, 1134.930 957.269, 1137.439 945.750 L 1138.038 943 1123.558 943 L 1109.077 943 1108.032 947.250 C 1105.824 956.227, 1105.468 956.500, 1095.962 956.500 L 1087.500 956.500 1087.179 953.149 C 1086.809 949.286, 1092.697 920.120, 1094.224 918.250 C 1094.882 917.444, 1098.017 917, 1103.051 917 C 1112.729 917, 1114.458 918.244, 1113.732 924.681 L 1113.246 929 1127.006 929 C 1142.954 929, 1141.627 930.061, 1142.636 916.500 C 1143.173 909.273, 1143.020 908.234, 1141.043 905.750 L 1138.855 903 1107.575 903 C 1076.779 903, 1076.244 903.035, 1072.952 905.253 M 912.496 906.250 C 913.199 909.207, 901.489 963.604, 899.495 966.648 L 897.954 969 915.012 969 C 930.943 969, 932.009 968.884, 931.148 967.250 C 930.046 965.160, 941.154 911.091, 943.578 906.750 L 945.113 904 928.537 904 L 911.962 904 912.496 906.250 M 318.736 935.968 C 313.381 943.575, 309 950.069, 309 950.399 C 309 950.730, 314.175 951, 320.500 951 L 332 951 331.957 948.250 C 331.897 944.427, 329.302 922.969, 328.845 922.512 C 328.639 922.306, 324.090 928.361, 318.736 935.968 M 568.736 935.968 C 563.381 943.575, 559 950.069, 559 950.399 C 559 950.730, 564.175 951, 570.500 951 L 582 951 581.957 948.250 C 581.897 944.427, 579.302 922.969, 578.845 922.512 C 578.639 922.306, 574.090 928.361, 568.736 935.968 M 1141.690 956.750 C 1141.455 957.163, 1140.955 959.300, 1140.578 961.500 C 1140.201 963.700, 1139.658 966.301, 1139.370 967.280 C 1138.884 968.932, 1139.793 969.039, 1152.099 968.780 L 1165.352 968.500 1166.633 963 C 1167.338 959.975, 1167.934 957.163, 1167.958 956.750 C 1167.981 956.337, 1162.177 956, 1155.059 956 C 1147.941 956, 1141.926 956.337, 1141.690 956.750" stroke="none" fill="#000000" fill-rule="evenodd"/>
</svg>